
<svg width="128px" height="35px" viewBox="0 0 128 35" version="1.1" xmlns="http://www.w3.org/2000/svg" xmlns:xlink="http://www.w3.org/1999/xlink">
    <g id="prototype" stroke="none" stroke-width="1" fill="none" fill-rule="evenodd">
        <g id="Step-1-Copy-3" transform="translate(-100.000000, -100.000000)" fill="#333333">
            <path d="M228,100 L228,135 L100,135 L100,100 L228,100 Z M124.983804,106 L109,106 L109,129 L113.998919,129 L113.998919,119.497199 L123.519153,119.497199 L123.519153,115.567227 L113.998919,115.567227 L113.998919,110.252101 L124.983804,110.252101 L124.983804,106 Z M147.167476,106 L142.168557,106 L142.168557,129 L158.247882,129 L158.247882,124.747899 L147.167476,124.747899 L147.167476,106 Z M180.336033,106 L175.337114,106 L175.337114,129 L180.336033,129 L180.336033,106 Z M204.016196,106 L199.017277,106 L199.017277,129 L204.016196,129 L204.016196,121.591036 L206.881818,118.659664 L213.727471,129 L220,129 L210.256884,115.084034 L219.140313,106 L212.899625,106 L204.016196,115.535014 L204.016196,106 Z" id="Combined-Shape-Copy-4"></path>
        </g>
    </g>
</svg>